<svg width="14" height="14" viewBox="0 0 14 14" fill="none" xmlns="http://www.w3.org/2000/svg">
<path d="M7 0C3.13113 0 0 3.13086 0 7C0 10.8689 3.13086 14 7 14C10.8689 14 14 10.8691 14 7C14 3.13113 10.8691 0 7 0ZM7 13.0668C3.65477 13.0668 0.933242 10.3452 0.933242 7C0.933242 3.65477 3.65477 0.933242 7 0.933242C10.3452 0.933242 13.0668 3.65477 13.0668 7C13.0668 10.3452 10.3452 13.0668 7 13.0668ZM10.1541 6.53324H7.46676V3.8459C7.46676 3.58805 7.25785 3.37914 7 3.37914C6.74215 3.37914 6.53324 3.58805 6.53324 3.8459V6.53324H3.8459C3.58805 6.53324 3.37914 6.74215 3.37914 7C3.37914 7.25785 3.58805 7.46676 3.8459 7.46676H6.53324V10.1541C6.53324 10.4117 6.74215 10.6209 7 10.6209C7.25785 10.6209 7.46676 10.412 7.46676 10.1541V7.46676H10.1541C10.4117 7.46676 10.6209 7.25785 10.6209 7C10.6209 6.74215 10.4117 6.53324 10.1541 6.53324Z" fill="#EF5350"/>
</svg>
